<svg width="36" height="36" viewBox="0 0 36 36" fill="none" xmlns="http://www.w3.org/2000/svg">
<g id="Icon">
<path id="path" fill-rule="evenodd" clip-rule="evenodd" d="M22.68 10.5017V13.4073L27.6146 8.47276L27.72 8.21821V5.31262L22.7854 10.2472L22.68 10.5017ZM8.28 29.2473V26.3417L8.38544 26.0872L13.32 21.1526V24.0582L13.2146 24.3128L8.28 29.2473ZM15.48 24.0582L15.5854 24.3128L20.52 29.2473V26.3417L20.4146 26.0872L15.48 21.1526V24.0582ZM22.68 26.3417V29.2473L27.6146 24.3128L27.72 24.0582V21.1526L22.7854 26.0872L22.68 26.3417ZM15.5854 8.47276L15.48 8.21821V5.31262L20.4146 10.2472L20.52 10.5017V13.4073L15.5854 8.47276ZM8.28 10.5017V13.4073L13.2146 8.47276L13.32 8.21821V5.31262L8.38544 10.2472L8.28 10.5017Z" fill="#44D5E9"/>
<path id="path_2" fill-rule="evenodd" clip-rule="evenodd" d="M14.4 8.64001C12.8094 8.64001 11.52 7.35058 11.52 5.76C11.52 4.16942 12.8094 2.88 14.4 2.88C15.9906 2.88 17.28 4.16942 17.28 5.76C17.28 7.35058 15.9906 8.64001 14.4 8.64001ZM11.52 21.6C11.52 23.1906 12.8094 24.48 14.4 24.48C15.9906 24.48 17.28 23.1906 17.28 21.6C17.28 20.0094 15.9906 18.72 14.4 18.72C12.8094 18.72 11.52 20.0094 11.52 21.6ZM18.72 28.8C18.72 30.3906 20.0094 31.68 21.6 31.68C23.1906 31.68 24.48 30.3906 24.48 28.8C24.48 27.2094 23.1906 25.92 21.6 25.92C20.0094 25.92 18.72 27.2094 18.72 28.8ZM28.8 24.48C27.2094 24.48 25.92 23.1906 25.92 21.6C25.92 20.0094 27.2094 18.72 28.8 18.72C30.3906 18.72 31.68 20.0094 31.68 21.6C31.68 23.1906 30.3906 24.48 28.8 24.48ZM4.32001 28.8C4.32001 30.3906 5.60943 31.68 7.20001 31.68C8.79059 31.68 10.08 30.3906 10.08 28.8C10.08 27.2094 8.79059 25.92 7.20001 25.92C5.60943 25.92 4.32001 27.2094 4.32001 28.8ZM18.72 12.96C18.72 14.5506 20.0094 15.84 21.6 15.84C23.1906 15.84 24.48 14.5506 24.48 12.96C24.48 11.3694 23.1906 10.08 21.6 10.08C20.0094 10.08 18.72 11.3694 18.72 12.96ZM28.8 8.64001C27.2094 8.64001 25.92 7.35058 25.92 5.76C25.92 4.16942 27.2094 2.88 28.8 2.88C30.3906 2.88 31.68 4.16942 31.68 5.76C31.68 7.35058 30.3906 8.64001 28.8 8.64001ZM4.32001 12.96C4.32001 14.5506 5.60943 15.84 7.20001 15.84C8.79059 15.84 10.08 14.5506 10.08 12.96C10.08 11.3694 8.79059 10.08 7.20001 10.08C5.60943 10.08 4.32001 11.3694 4.32001 12.96Z" fill="#3B5AFB"/>
</g>
</svg>
