<svg width="36" height="36" viewBox="0 0 36 36" fill="none" xmlns="http://www.w3.org/2000/svg">
<path d="M22.32 18.72V12.6C22.32 10.0153 20.5847 7.92001 18 7.92001C15.4153 7.92001 13.68 10.0153 13.68 12.6V18.72H11.52V12.6C11.52 8.82238 14.2224 5.76001 18 5.76001C21.7776 5.76001 24.48 8.82238 24.48 12.6V18.72H22.32Z" fill="#44D5E9"/>
<path d="M9.36 15.84H26.64C27.0376 15.84 27.36 16.1623 27.36 16.56V29.52C27.36 29.9176 27.0376 30.24 26.64 30.24H9.36C8.96235 30.24 8.64 29.9176 8.64 29.52V16.56C8.64 16.1623 8.96235 15.84 9.36 15.84Z" fill="#3B5AFB"/>
</svg>
