<svg width="36" height="36" viewBox="0 0 36 36" fill="none" xmlns="http://www.w3.org/2000/svg">
<g id="Icon">
<path id="path" d="M18 34C9.16344 34 2 26.8366 2 18C2 9.16344 9.16344 2 18 2C26.8366 2 34 9.16344 34 18C34 26.8366 26.8366 34 18 34Z" fill="#3B5AFB"/>
<g id="bitcoin-alt">
<path id="Shape" fill-rule="evenodd" clip-rule="evenodd" d="M21.3747 17.2789C22.0068 16.3452 22.0715 15.1387 21.5428 14.1429C21.014 13.147 19.9784 12.5247 18.8508 12.5253V11.7634C18.8508 11.3426 18.5097 11.0015 18.0889 11.0015C17.6681 11.0015 17.327 11.3426 17.327 11.7634V12.5253H15.8032V11.7634C15.8032 11.3426 15.4621 11.0015 15.0413 11.0015C14.6205 11.0015 14.2794 11.3426 14.2794 11.7634V12.5253H13.5175C13.0967 12.5253 12.7556 12.8664 12.7556 13.2872C12.7556 13.708 13.0967 14.0491 13.5175 14.0491H14.2794V21.6681H13.5175C13.0967 21.6681 12.7556 22.0092 12.7556 22.43C12.7556 22.8508 13.0967 23.1919 13.5175 23.1919H14.2794V23.9538C14.2794 24.3746 14.6205 24.7158 15.0413 24.7158C15.4621 24.7158 15.8032 24.3746 15.8032 23.9538V23.1919H17.327V23.9538C17.327 24.3746 17.6681 24.7158 18.0889 24.7158C18.5097 24.7158 18.8508 24.3746 18.8508 23.9538V23.1919H20.3746C21.8608 23.1958 23.1319 22.1245 23.3797 20.6591C23.6275 19.1938 22.7795 17.764 21.3747 17.279V17.2789ZM15.8032 14.0491H18.8508C19.6924 14.0491 20.3746 14.7313 20.3746 15.5729C20.3746 16.4145 19.6924 17.0967 18.8508 17.0967H15.8032V14.0491ZM15.8032 18.6205V21.6681H20.3746C21.2162 21.6681 21.8984 20.9859 21.8984 20.1443C21.8984 19.3027 21.2162 18.6205 20.3746 18.6205H15.8032Z" fill="white"/>
</g>
</g>
</svg>
