<svg width="104" height="104" viewBox="0 0 104 104" fill="none" xmlns="http://www.w3.org/2000/svg">
<g filter="url(#filter0_d_0_9565)">
<path fill-rule="evenodd" clip-rule="evenodd" d="M52 74C67.464 74 80 61.464 80 46C80 30.536 67.464 18 52 18C36.536 18 24 30.536 24 46C24 61.464 36.536 74 52 74Z" fill="white"/>
</g>
<path d="M54.1841 43.2485L58.07 45.0023C58.9913 45.418 59.3429 46.4437 58.7572 47.2367L49.9343 59.1821C49.5471 59.7064 48.7156 59.384 48.7829 58.7358L49.82 48.7553L45.9341 47.0015C45.0128 46.5858 44.6612 45.5601 45.2469 44.7671L54.0698 32.8217C54.457 32.2974 55.2885 32.6198 55.2212 33.268L54.1841 43.2485Z" fill="#3B5AFB"/>
<defs>
<filter id="filter0_d_0_9565" x="0" y="0" width="104" height="104" filterUnits="userSpaceOnUse" color-interpolation-filters="sRGB">
<feFlood flood-opacity="0" result="BackgroundImageFix"/>
<feColorMatrix in="SourceAlpha" type="matrix" values="0 0 0 0 0 0 0 0 0 0 0 0 0 0 0 0 0 0 127 0" result="hardAlpha"/>
<feOffset dy="6"/>
<feGaussianBlur stdDeviation="12"/>
<feColorMatrix type="matrix" values="0 0 0 0 0 0 0 0 0 0 0 0 0 0 0 0 0 0 0.04 0"/>
<feBlend mode="normal" in2="BackgroundImageFix" result="effect1_dropShadow_0_9565"/>
<feBlend mode="normal" in="SourceGraphic" in2="effect1_dropShadow_0_9565" result="shape"/>
</filter>
</defs>
</svg>
