<svg width="387" height="342" viewBox="0 0 387 342" fill="none" xmlns="http://www.w3.org/2000/svg">
<path fill-rule="evenodd" clip-rule="evenodd" d="M5 342C7.76142 342 10 339.761 10 337C10 334.239 7.76142 332 5 332C2.23858 332 0 334.239 0 337C0 339.761 2.23858 342 5 342Z" fill="#36B37E"/>
<path fill-rule="evenodd" clip-rule="evenodd" d="M203 135C205.761 135 208 132.761 208 130C208 127.239 205.761 125 203 125C200.239 125 198 127.239 198 130C198 132.761 200.239 135 203 135Z" fill="#36B37E"/>
<path fill-rule="evenodd" clip-rule="evenodd" d="M349 217C351.761 217 354 214.761 354 212C354 209.239 351.761 207 349 207C346.239 207 344 209.239 344 212C344 214.761 346.239 217 349 217Z" fill="#36B37E"/>
<path fill-rule="evenodd" clip-rule="evenodd" d="M11 17C13.7614 17 16 14.7614 16 12C16 9.23858 13.7614 7 11 7C8.23858 7 6 9.23858 6 12C6 14.7614 8.23858 17 11 17Z" fill="#36B37E"/>
<path fill-rule="evenodd" clip-rule="evenodd" d="M382 16C384.761 16 387 13.7614 387 11C387 8.23858 384.761 6 382 6C379.239 6 377 8.23858 377 11C377 13.7614 379.239 16 382 16Z" fill="#36B37E"/>
<path d="M11 12.5C11 12.5 301 -50 350 212" stroke="#36B37E"/>
<path d="M5 337C5 337 32.5 30.5 382 11.5" stroke="#36B37E"/>
<path d="M203 130.5C203 130.5 163 20.5 11 12" stroke="#36B37E"/>
</svg>
