<svg width="104" height="104" viewBox="0 0 104 104" fill="none" xmlns="http://www.w3.org/2000/svg">
<g filter="url(#filter0_d_0_9532)">
<path fill-rule="evenodd" clip-rule="evenodd" d="M52 74C67.464 74 80 61.464 80 46C80 30.536 67.464 18 52 18C36.536 18 24 30.536 24 46C24 61.464 36.536 74 52 74Z" fill="white"/>
</g>
<path fill-rule="evenodd" clip-rule="evenodd" d="M47.52 33.84H56.48V35.76C56.48 36.8204 57.3396 37.68 58.4 37.68C59.4604 37.68 60.32 36.8204 60.32 35.76V33.84H64.16C64.8669 33.84 65.44 34.4131 65.44 35.12V38.96H38.56V35.12C38.56 34.4131 39.1331 33.84 39.84 33.84H43.68V35.76C43.68 36.8204 44.5396 37.68 45.6 37.68C46.6604 37.68 47.52 36.8204 47.52 35.76V33.84Z" fill="#44D5E9"/>
<path fill-rule="evenodd" clip-rule="evenodd" d="M57.76 33.2V35.76C57.76 36.1135 58.0465 36.4 58.4 36.4C58.7535 36.4 59.04 36.1135 59.04 35.76V33.2C59.04 32.8465 58.7535 32.56 58.4 32.56C58.0465 32.56 57.76 32.8465 57.76 33.2ZM65.44 40.24V53.68C65.44 56.1542 63.4342 58.16 60.96 58.16H43.04C40.5658 58.16 38.56 56.1542 38.56 53.68V40.24H65.44ZM44.7725 49.3874C44.5226 49.1375 44.1174 49.1375 43.8674 49.3874C43.6175 49.6374 43.6175 50.0426 43.8674 50.2925L45.1474 51.5725C45.3974 51.8225 45.8026 51.8225 46.0525 51.5725L48.6125 49.0125C48.8625 48.7626 48.8625 48.3574 48.6125 48.1074C48.3626 47.8575 47.9574 47.8575 47.7074 48.1074L45.6 50.2149L44.7725 49.3874ZM43.8674 44.2674C44.1174 44.0175 44.5226 44.0175 44.7725 44.2674L45.6 45.0949L47.7074 42.9874C47.9574 42.7375 48.3626 42.7375 48.6125 42.9874C48.8625 43.2374 48.8625 43.6426 48.6125 43.8925L46.0525 46.4525C45.8026 46.7025 45.3974 46.7025 45.1474 46.4525L43.8674 45.1725C43.6175 44.9226 43.6175 44.5174 43.8674 44.2674ZM52.0014 45.36L58.3974 45.3663C58.7519 45.3667 59.0396 45.0804 59.04 44.727C59.0403 44.3735 58.7532 44.0867 58.3986 44.0863L52.0026 44.08C51.6481 44.0796 51.3603 44.3659 51.36 44.7194C51.3596 45.0728 51.6468 45.3596 52.0014 45.36ZM58.3974 50.4863L52.0014 50.48C51.6468 50.4796 51.3596 50.1928 51.36 49.8394C51.3603 49.4859 51.6481 49.1996 52.0026 49.2L58.3986 49.2063C58.7532 49.2067 59.0403 49.4935 59.04 49.847C59.0396 50.2004 58.7519 50.4867 58.3974 50.4863ZM44.96 35.76V33.2C44.96 32.8465 45.2465 32.56 45.6 32.56C45.9535 32.56 46.24 32.8465 46.24 33.2V35.76C46.24 36.1135 45.9535 36.4 45.6 36.4C45.2465 36.4 44.96 36.1135 44.96 35.76Z" fill="#3B5AFB"/>
<defs>
<filter id="filter0_d_0_9532" x="0" y="0" width="104" height="104" filterUnits="userSpaceOnUse" color-interpolation-filters="sRGB">
<feFlood flood-opacity="0" result="BackgroundImageFix"/>
<feColorMatrix in="SourceAlpha" type="matrix" values="0 0 0 0 0 0 0 0 0 0 0 0 0 0 0 0 0 0 127 0" result="hardAlpha"/>
<feOffset dy="6"/>
<feGaussianBlur stdDeviation="12"/>
<feColorMatrix type="matrix" values="0 0 0 0 0 0 0 0 0 0 0 0 0 0 0 0 0 0 0.04 0"/>
<feBlend mode="normal" in2="BackgroundImageFix" result="effect1_dropShadow_0_9532"/>
<feBlend mode="normal" in="SourceGraphic" in2="effect1_dropShadow_0_9532" result="shape"/>
</filter>
</defs>
</svg>
