<svg width="104" height="104" viewBox="0 0 104 104" fill="none" xmlns="http://www.w3.org/2000/svg">
<g filter="url(#filter0_d_0_9550)">
<path fill-rule="evenodd" clip-rule="evenodd" d="M52 74C67.464 74 80 61.464 80 46C80 30.536 67.464 18 52 18C36.536 18 24 30.536 24 46C24 61.464 36.536 74 52 74Z" fill="white"/>
</g>
<path fill-rule="evenodd" clip-rule="evenodd" d="M52 59.44C47.1453 59.44 38.56 50.1195 38.56 43.44C38.56 36.4527 43.9389 32.56 52 32.56C60.0611 32.56 65.44 36.4527 65.44 43.44C65.44 50.1195 56.8547 59.44 52 59.44ZM53.262 47.9017C55.8499 48.0445 57.9399 47.3478 59.4839 45.8039C61.0278 44.2599 61.7245 42.1699 61.5817 39.582C61.5637 39.2563 61.3036 38.9962 60.9779 38.9782C58.39 38.8354 56.3 39.5321 54.756 41.076C53.2121 42.62 52.5154 44.71 52.6582 47.2979C52.6762 47.6236 52.9363 47.8837 53.262 47.9017ZM51.3417 47.2979C51.3237 47.6236 51.0636 47.8837 50.7379 47.9017C48.15 48.0445 46.06 47.3478 44.516 45.8039C42.9721 44.2599 42.2754 42.1699 42.4182 39.582C42.4362 39.2563 42.6963 38.9962 43.022 38.9782C45.6099 38.8354 47.6999 39.5321 49.2439 41.076C50.7878 42.62 51.4845 44.71 51.3417 47.2979Z" fill="#3B5AFB"/>
<path fill-rule="evenodd" clip-rule="evenodd" d="M58.5787 44.8987C57.421 46.0565 55.8801 46.6389 53.9199 46.64C53.921 44.6797 54.5034 43.1389 55.6611 41.9811C56.8189 40.8234 58.3597 40.241 60.32 40.2399C60.3189 42.2001 59.7365 43.741 58.5787 44.8987ZM48.3387 41.9811C49.4965 43.1389 50.0789 44.6797 50.08 46.64C48.1197 46.6389 46.5789 46.0565 45.4211 44.8987C44.2634 43.741 43.681 42.2001 43.6799 40.2399C45.6401 40.241 47.181 40.8234 48.3387 41.9811Z" fill="#44D5E9"/>
<defs>
<filter id="filter0_d_0_9550" x="0" y="0" width="104" height="104" filterUnits="userSpaceOnUse" color-interpolation-filters="sRGB">
<feFlood flood-opacity="0" result="BackgroundImageFix"/>
<feColorMatrix in="SourceAlpha" type="matrix" values="0 0 0 0 0 0 0 0 0 0 0 0 0 0 0 0 0 0 127 0" result="hardAlpha"/>
<feOffset dy="6"/>
<feGaussianBlur stdDeviation="12"/>
<feColorMatrix type="matrix" values="0 0 0 0 0 0 0 0 0 0 0 0 0 0 0 0 0 0 0.04 0"/>
<feBlend mode="normal" in2="BackgroundImageFix" result="effect1_dropShadow_0_9550"/>
<feBlend mode="normal" in="SourceGraphic" in2="effect1_dropShadow_0_9550" result="shape"/>
</filter>
</defs>
</svg>
