<svg width="36" height="36" viewBox="0 0 36 36" fill="none" xmlns="http://www.w3.org/2000/svg">
<g id="Icon">
<path id="Path" fill-rule="evenodd" clip-rule="evenodd" d="M5.76001 30.24L30.2397 27.1882L25.6304 10.3319L7.29408 5.76001L5.76001 30.24ZM7.9864 27.8764L9.20872 8.371L23.9491 12.0463L27.6089 25.4301L7.9864 27.8764Z" fill="#44D5E9"/>
<path id="Path_2" fill-rule="evenodd" clip-rule="evenodd" d="M5.72308 6.77542C5.72308 8.13154 6.8224 9.23089 8.17847 9.23089C9.53454 9.23089 10.6339 8.13154 10.6339 6.77542C10.6339 5.4193 9.53454 4.31995 8.17847 4.31995C6.8224 4.31995 5.72308 5.4193 5.72308 6.77542ZM22.56 10.9848C22.56 12.3409 23.6593 13.4403 25.0154 13.4403C26.3715 13.4403 27.4708 12.3409 27.4708 10.9848C27.4708 9.62868 26.3715 8.52933 25.0154 8.52933C23.6593 8.52933 22.56 9.62868 22.56 10.9848ZM6.77539 31.6809C5.41932 31.6809 4.32001 30.5816 4.32001 29.2254C4.32001 27.8693 5.41932 26.77 6.77539 26.77C8.13146 26.77 9.23078 27.8693 9.23078 29.2254C9.23078 30.5816 8.13146 31.6809 6.77539 31.6809ZM26.7692 26.4192C26.7692 27.7753 27.8686 28.8747 29.2246 28.8747C30.5807 28.8747 31.68 27.7753 31.68 26.4192C31.68 25.0631 30.5807 23.9637 29.2246 23.9637C27.8686 23.9637 26.7692 25.0631 26.7692 26.4192Z" fill="#3B5AFB"/>
</g>
</svg>
